<?xml version="1.0" encoding="UTF-8"?>
<svg id="main_logo" xmlns="http://www.w3.org/2000/svg" viewBox="0 0 393.44 63.37">
  <g id="logo">
    <polygon points="235.32 10.95 259.79 10.95 259.79 21.01 243.23 21.01 243.23 31.1 259.79 31.1 259.79 41.19 235.32 41.19 235.32 51.28 269.88 51.28 269.88 .86 235.32 .86 235.32 10.95"/>
    <path d="m29.28,20.81H10.09v-10.09h15.47V.63H0v50.41h25.56v-10.09h-15.47v-10.05h19.19c2.79,0,5.04-2.26,5.04-5.04s-2.26-5.04-5.04-5.04Z"/>
    <path d="m44.87,1.83c-1.83.8-3.43,1.88-4.8,3.25s-2.46,2.97-3.25,4.8c-.8,1.83-1.2,3.79-1.2,5.87,0,.94.13,1.9.39,2.88.26.98.62,1.93,1.09,2.85.47.91,1.03,1.75,1.69,2.5.66.75,1.38,1.37,2.18,1.86-.82.45-1.56,1.05-2.21,1.81-.66.76-1.22,1.6-1.69,2.51-.47.91-.83,1.87-1.07,2.87-.25,1-.37,1.96-.37,2.9,0,2.09.4,4.04,1.2,5.87.8,1.83,1.88,3.43,3.25,4.8s2.97,2.46,4.8,3.25,3.79,1.2,5.87,1.2h25.21V.63h-25.21c-2.09,0-4.04.4-5.87,1.2Zm20.99,39.13h-15.12c-.7,0-1.36-.13-1.97-.39-.61-.26-1.14-.62-1.6-1.07s-.81-.99-1.07-1.6c-.26-.61-.39-1.27-.39-1.97s.13-1.36.39-1.97c.26-.61.62-1.14,1.07-1.6s.99-.81,1.6-1.07c.61-.26,1.27-.39,1.97-.39h15.12v10.05Zm0-20.14h-15.12c-.7,0-1.36-.13-1.97-.39-.61-.26-1.14-.62-1.6-1.07s-.81-1-1.07-1.62c-.26-.62-.39-1.28-.39-1.99s.13-1.36.39-1.97c.26-.61.62-1.14,1.07-1.6s.99-.81,1.6-1.07c.61-.26,1.27-.39,1.97-.39h15.12v10.09Z"/>
    <polygon points="162.33 33.86 142.89 .63 132.09 .63 132.09 51.05 142.18 51.05 142.18 17.86 161.62 51.05 172.42 51.05 172.42 .63 162.33 .63 162.33 33.86"/>
    <path d="m227.61,12.9c-1.12-1.92-2.48-3.68-4.08-5.27-1.59-1.59-3.35-2.95-5.27-4.08s-4-2-6.22-2.62c-2.23-.62-4.54-.93-6.93-.93s-4.69.31-6.91.93c-2.21.62-4.29,1.49-6.22,2.62s-3.7,2.48-5.29,4.08-2.96,3.35-4.1,5.27c-1.14,1.92-2.02,4-2.64,6.22-.62,2.23-.93,4.54-.93,6.93s.31,4.69.93,6.91c.62,2.21,1.5,4.29,2.64,6.22,1.14,1.93,2.5,3.7,4.1,5.29,1.59,1.59,3.36,2.96,5.29,4.1s4.01,2.02,6.22,2.64,4.52.93,6.91.93,4.7-.31,6.93-.93,4.3-1.5,6.22-2.64,3.68-2.5,5.27-4.1c1.59-1.59,2.95-3.36,4.08-5.29s2-4.01,2.62-6.22.93-4.52.93-6.91-.31-4.7-.93-6.93c-.62-2.23-1.49-4.3-2.62-6.22Zm-7.73,19.35c-.84,1.93-1.99,3.63-3.43,5.08-1.44,1.45-3.14,2.6-5.1,3.45s-4.04,1.27-6.24,1.27-4.31-.42-6.26-1.27c-1.95-.84-3.64-1.99-5.1-3.45-1.45-1.45-2.6-3.15-3.45-5.08s-1.27-4-1.27-6.21.42-4.28,1.27-6.24c.84-1.96,1.99-3.66,3.45-5.1,1.45-1.44,3.15-2.58,5.1-3.43,1.95-.84,4.03-1.27,6.26-1.27s4.28.42,6.24,1.27,3.66,1.99,5.1,3.43,2.58,3.14,3.43,5.1c.84,1.96,1.27,4.04,1.27,6.24s-.42,4.27-1.27,6.21Z"/>
    <path d="m288.47,43.24c-.54-.54-1.17-.97-1.9-1.28s-1.51-.47-2.36-.47-1.6.16-2.34.47-1.38.74-1.93,1.28c-.55.54-.98,1.17-1.3,1.9-.32.73-.47,1.5-.47,2.32s.16,1.63.47,2.37.75,1.38,1.3,1.92,1.2.97,1.93,1.28,1.52.47,2.34.47,1.63-.16,2.36-.47,1.36-.74,1.9-1.28.96-1.18,1.27-1.92.46-1.53.46-2.37-.15-1.59-.46-2.32c-.3-.73-.73-1.36-1.27-1.9Z"/>
    <path d="m343.17,12.9c-1.12-1.92-2.48-3.68-4.08-5.27-1.59-1.59-3.35-2.95-5.27-4.08s-4-2-6.22-2.62c-2.23-.62-4.54-.93-6.93-.93s-4.69.31-6.91.93c-2.21.62-4.29,1.49-6.22,2.62s-3.7,2.48-5.29,4.08c-1.59,1.59-2.96,3.35-4.1,5.27-1.14,1.92-2.02,4-2.64,6.22-.62,2.23-.93,4.54-.93,6.93s.31,4.69.93,6.91,1.5,4.29,2.64,6.22,2.5,3.7,4.1,5.29c1.59,1.59,3.36,2.96,5.29,4.1s4.01,2.02,6.22,2.64,4.52.93,6.91.93h.86c.29,0,.6-.02.93-.07l5.42,8.95c1.36,2.25,4.26,3.02,6.57,1.74,2.46-1.37,3.26-4.52,1.76-6.9l-4.04-6.4c2.2-1.1,4.2-2.47,5.99-4.11,1.79-1.64,3.32-3.47,4.59-5.5,1.27-2.03,2.24-4.21,2.94-6.56.69-2.34,1.04-4.76,1.04-7.24s-.31-4.7-.93-6.93c-.62-2.23-1.49-4.3-2.62-6.22Zm-7.73,19.35c-.84,1.93-1.99,3.63-3.43,5.08-1.44,1.45-3.14,2.6-5.1,3.45s-4.04,1.27-6.24,1.27-4.31-.42-6.26-1.27-3.64-1.99-5.1-3.45c-1.45-1.45-2.6-3.15-3.45-5.08s-1.27-4-1.27-6.21.42-4.28,1.27-6.24c.84-1.96,1.99-3.66,3.45-5.1s3.15-2.58,5.1-3.43,4.03-1.27,6.26-1.27,4.28.42,6.24,1.27,3.66,1.99,5.1,3.43,2.58,3.14,3.43,5.1c.84,1.96,1.27,4.04,1.27,6.24s-.42,4.27-1.27,6.21Z"/>
    <path d="m117.43,6.54c-1.83-1.83-3.97-3.27-6.42-4.32-2.45-1.05-5.07-1.58-7.86-1.58s-5.41.53-7.86,1.58c-2.45,1.05-4.58,2.5-6.4,4.32-1.82,1.83-3.25,3.97-4.31,6.42-1.05,2.45-1.58,5.07-1.58,7.86v30.23h10.05v-10.09h20.18v10.09h10.09v-30.23c0-2.79-.53-5.41-1.58-7.86-1.05-2.45-2.5-4.59-4.32-6.42Zm-4.18,24.36h-20.18v-10.09c0-1.38.26-2.69.79-3.92s1.25-2.3,2.16-3.22,1.99-1.63,3.22-2.16c0,0,.02,0,.02,0v1.73c0,2.16,1.75,3.91,3.91,3.91s3.91-1.75,3.91-3.91v-1.71c1.23.53,2.29,1.25,3.2,2.16s1.63,1.99,2.16,3.22.79,2.54.79,3.92v10.09Z"/>
    <path d="m383.39.63v10.09h-20.18V.63h-10.09v30.23c0,2.79.53,5.41,1.58,7.86,1.05,2.45,2.5,4.59,4.32,6.42s3.97,3.27,6.42,4.32c2.45,1.05,5.07,1.58,7.86,1.58s5.41-.53,7.86-1.58c2.45-1.05,4.58-2.5,6.4-4.32,1.82-1.83,3.25-3.97,4.31-6.42,1.05-2.45,1.58-5.07,1.58-7.86V.63h-10.05Zm0,30.23c0,1.38-.26,2.69-.79,3.92s-1.25,2.3-2.16,3.22-1.99,1.63-3.22,2.16c0,0-.02,0-.02,0v-1.73c0-2.16-1.75-3.91-3.91-3.91s-3.91,1.75-3.91,3.91v1.71c-1.23-.53-2.29-1.25-3.2-2.16s-1.63-1.99-2.16-3.22-.79-2.54-.79-3.92v-10.09h20.18v10.09Z"/>
  </g>
</svg>